<?xml version="1.0" encoding="UTF-8" standalone="no"?>
<svg width="900px" height="300px" viewBox="0 0 900 300" version="1.1" xmlns="http://www.w3.org/2000/svg" xmlns:xlink="http://www.w3.org/1999/xlink">
    <!-- Generator: Sketch 39.1 (31720) - http://www.bohemiancoding.com/sketch -->
    <title>iDE-Global_Pillar_Human_Centered_Design</title>
    <desc>Created with Sketch.</desc>
    <defs>
        <polygon id="path-1" points="0 0.681569989 0 15.7295697 20.0167197 15.7295697 20.0167197 0.681569989 1.21972742e-20 0.681569989"></polygon>
        <polygon id="path-3" points="0.0914399985 8.09999987 2.29013996 8.09999987 2.29013996 0.399869994 0.0914399985 0.399869994"></polygon>
        <polygon id="path-5" points="44.7633893 0.136799998 0.60897427 0.136799998 0.60897427 46.6987493 44.7633893 46.6987493 44.7633893 0.136799998"></polygon>
    </defs>
    <g id="Page-1" stroke="none" stroke-width="1" fill="none" fill-rule="evenodd">
        <g id="Human-Centered-Design-desktop–3:1">
            <g id="Page-1" transform="translate(212.000000, 54.000000)">
                <path d="M103.030288,94.1683485 C103.577488,93.0442485 104.579188,92.8768485 105.481888,92.2072485 C106.043488,91.7905485 106.506988,91.0183486 106.830988,90.4369486 C107.930788,88.4650486 110.146588,87.4309486 112.204888,88.8592486 C112.274188,88.9078486 112.328188,88.9591486 112.388488,89.0086486 L112.388488,82.1794487 C112.388488,81.0175487 111.447088,80.0761487 110.285188,80.0761487 L86.7033886,80.0761487 C85.5414886,80.0761487 84.6000887,81.0175487 84.6000887,82.1794487 L84.6000887,95.2204485 C84.6000887,96.3823485 85.5414886,97.3237485 86.7033886,97.3237485 L96.2100885,97.3237485 L98.4141884,100.939948 L98.5752884,100.939948 L100.778488,97.3237485 L103.398388,97.3237485 C102.688288,96.4390485 102.524488,95.2060485 103.030288,94.1683485" id="Fill-1" fill="#48B971"></path>
                <path d="M115.812088,147.068008 C115.799488,141.538408 115.747288,135.338308 115.696888,129.851008 C113.895088,130.447708 112.219288,130.767208 110.712688,130.767208 C110.420188,130.767208 110.133988,130.755508 109.854088,130.732108 L109.606588,130.712308 L109.569688,130.468408 C109.552588,130.355908 109.541788,130.247908 109.525588,130.136308 C108.722788,130.235308 107.865988,130.289308 107.025388,130.289308 C105.701488,130.289308 104.439688,130.172308 103.569388,129.958108 C103.802488,135.394108 104.076088,141.457408 104.328088,146.571208 C104.823088,146.775508 106.497988,146.984308 107.414188,146.741308 C107.555488,144.791008 107.712088,142.991008 107.885788,141.612208 C108.543688,136.387708 109.426588,136.373308 109.758688,136.367908 L109.770388,136.367908 C110.331088,136.367908 111.063688,136.970908 111.787288,141.519508 C112.002388,142.872208 112.217488,144.558808 112.491988,146.694508 C112.512688,146.862808 112.536088,147.041008 112.558588,147.213808 C113.371288,147.541408 115.212688,147.297508 115.812088,147.068008" id="Fill-3" fill="#50515F"></path>
                <path d="M104.359858,147.227128 C104.382358,147.681628 104.404858,148.125328 104.426458,148.562728 C105.055558,148.740028 106.448758,148.885828 107.280358,148.686928 C107.309158,148.249528 107.337958,147.815728 107.368558,147.387328 C107.055358,147.447628 106.704358,147.477328 106.340758,147.477328 C105.616258,147.477328 104.868358,147.372028 104.359858,147.227128" id="Fill-5" fill="#50515F"></path>
                <path d="M104.459758,149.206408 C104.628958,152.502208 104.781958,155.195008 104.897158,156.726808 C105.026758,158.455707 105.553258,159.258507 105.869158,159.258507 L105.870058,159.258507 C106.173358,159.255807 106.698058,158.500707 106.816858,156.485608 L106.934758,154.438108 C107.027458,152.825308 107.128258,151.064908 107.238958,149.327908 C106.937458,149.381908 106.601758,149.407108 106.257058,149.407108 C105.617158,149.407108 104.956558,149.325208 104.459758,149.206408" id="Fill-7" fill="#50515F"></path>
                <path d="M112.899868,149.846668 C113.199568,152.120068 113.555068,154.703968 114.003268,157.604667 C114.163468,158.636967 114.708868,159.266967 115.089568,159.221067 C115.408168,159.199467 115.740268,158.683767 115.760068,157.580367 C115.798768,155.421268 115.814068,152.695168 115.814968,149.680168 C115.277668,149.824168 114.533368,149.927668 113.835868,149.927668 C113.502868,149.927668 113.184268,149.900668 112.899868,149.846668" id="Fill-9" fill="#50515F"></path>
                <path d="M120.480568,120.096628 C120.447268,118.395628 120.387868,116.823328 120.277168,114.669628 C119.862268,106.584928 115.132768,106.280728 112.859368,106.134028 L112.834168,106.132228 C112.974568,107.737828 112.285168,108.824128 111.545368,109.963528 C110.747968,111.193828 109.922668,112.465528 109.862368,114.652528 L109.858768,114.666928 C109.894768,115.003528 109.921768,115.359028 109.935268,115.743328 C109.973968,116.906128 109.914568,118.245328 109.852468,119.662828 C109.723768,122.544628 109.564468,126.117628 110.151268,130.126228 C111.782968,130.218028 113.647768,129.889528 115.690768,129.192028 C115.683568,128.373028 115.675468,127.564828 115.668268,126.786328 C115.614268,121.038928 115.571968,116.499328 115.598968,115.267228 C115.623268,114.220528 115.788868,112.463728 116.633068,112.442128 L116.648368,112.442128 C117.463768,112.442128 117.703168,114.072028 117.773368,115.048528 C117.917368,117.044728 118.057768,118.740328 118.205368,120.298228 C118.956868,120.359428 119.914468,120.240628 120.480568,120.096628" id="Fill-11" fill="#50515F"></path>
                <path d="M113.711038,147.998698 C113.324938,147.998698 112.960438,147.962698 112.644538,147.888898 C112.698538,148.308298 112.755238,148.742998 112.813738,149.188498 C113.624638,149.429698 115.155538,149.241598 115.815238,149.038198 C115.814338,148.603498 115.814338,148.159798 115.813438,147.713398 C115.269838,147.876298 114.467038,147.998698 113.711038,147.998698" id="Fill-13" fill="#50515F"></path>
                <path d="M109.444498,129.522598 C108.963898,125.741698 109.105198,122.376598 109.226698,119.635198 C109.291498,118.169098 109.349098,116.902798 109.309498,115.764298 C109.196098,112.427098 108.106198,111.124798 107.144998,109.975498 C106.347598,109.021498 105.599698,108.109798 105.579898,106.306198 C103.455898,106.604998 98.7875984,107.455498 98.7524984,111.975298 C98.7299984,114.927298 98.6417984,117.737998 98.5499984,120.316498 C99.0476984,120.442498 99.9188984,120.545098 100.660498,120.506398 C100.812598,118.493998 100.934098,116.637298 100.987198,115.576198 C101.101498,113.259598 101.469598,112.084198 102.079798,112.084198 L102.092398,112.084198 C102.840298,112.103098 102.996898,113.844598 102.996898,115.302598 C102.996898,116.033398 103.229998,122.025598 103.541398,129.303898 C104.735698,129.646798 107.208898,129.797998 109.444498,129.522598" id="Fill-15" fill="#50515F"></path>
                <path d="M118.684168,122.139628 C118.584268,122.139628 118.487068,122.134228 118.388968,122.129728 C118.577068,123.908128 118.782268,125.583028 119.023468,127.437928 C119.220568,128.967028 119.665168,129.449428 119.856868,129.449428 L119.864068,129.449428 C120.092668,129.435028 120.520168,128.762728 120.520168,127.209328 C120.520168,125.015128 120.518368,123.363628 120.505768,121.929028 C119.985568,122.052328 119.318668,122.139628 118.684168,122.139628" id="Fill-17" fill="#50515F"></path>
                <path d="M106.316818,94.2265785 L106.433818,94.1293785 C108.178018,93.2977785 111.984118,93.6622785 113.445718,94.5316785 L113.516818,94.5739785 L113.557318,94.6441785 C113.636518,94.7836785 113.715718,94.9249785 113.785018,95.0797785 C114.185518,95.9761785 114.360118,97.2253785 114.099118,98.6878784 C114.821818,98.3935784 115.408618,97.9741784 115.882918,97.4044784 C116.245618,96.9697785 116.446318,96.0724785 116.032318,95.1310785 C115.608418,94.1707785 114.230518,92.5309785 109.761118,92.3266785 C109.490218,92.3140785 109.230118,92.3077785 108.981718,92.3077785 C105.490618,92.3077785 104.198218,93.4705785 103.731118,94.1959785 C103.270318,94.9141785 103.231618,95.8033785 103.628518,96.5755785 C103.893118,97.0903785 104.514118,97.5826784 105.323218,98.0029784 C105.225118,95.9806785 105.961318,94.7089785 106.316818,94.2265785" id="Fill-19" fill="#50515F"></path>
                <path d="M120.499288,121.296058 C120.496588,121.104358 120.494788,120.914458 120.491188,120.729058 C119.970088,120.853258 119.300488,120.940558 118.664188,120.940558 C118.528288,120.940558 118.395988,120.935158 118.266388,120.927058 C118.285288,121.122358 118.305088,121.314058 118.323988,121.504858 C119.059288,121.548958 119.957488,121.433758 120.499288,121.296058" id="Fill-21" fill="#50515F"></path>
                <path d="M109.789468,91.7017185 C111.297868,91.7710185 112.483168,92.0014185 113.414668,92.3200185 C113.202268,91.9807185 113.033068,91.6072185 112.977268,91.2103185 C112.595668,88.4644186 108.597868,87.9082186 107.486368,90.5146186 C107.230768,91.1140185 106.918468,91.5577185 106.605268,91.9015185 C107.460268,91.7296185 108.504268,91.6423185 109.789468,91.7017185" id="Fill-23" fill="#50515F"></path>
                <path d="M98.5279484,120.943708 C98.5207484,121.137208 98.5135484,121.336108 98.5072484,121.526908 C99.0076484,121.648408 99.8464484,121.743808 100.567348,121.707808 C100.582648,121.514308 100.597948,121.321708 100.612348,121.130008 C100.511548,121.134508 100.410748,121.140808 100.307248,121.140808 C99.6745484,121.140808 99.0229484,121.059808 98.5279484,120.943708" id="Fill-25" fill="#50515F"></path>
                <path d="M109.493998,112.793218 C109.833298,111.470218 110.451598,110.501818 111.021298,109.623418 C111.745798,108.505618 112.367698,107.532718 112.203898,106.077418 L111.981598,106.049518 C111.357898,105.934318 111.092398,105.567118 110.978998,105.280018 C110.669398,104.496118 111.119398,103.438618 111.476698,102.956218 C113.839198,99.7594184 113.922898,96.9235185 113.212798,95.3341185 C113.165998,95.2270185 113.111098,95.1271185 113.056198,95.0290185 C111.701698,94.2820185 108.332998,93.9769185 106.774198,94.6618185 C106.194598,95.4907185 104.806798,98.2672184 107.710198,103.020118 C107.947798,103.408018 108.159298,104.280118 107.887498,105.004618 C107.683198,105.550018 107.239498,105.943318 106.606798,106.141318 C106.516798,106.169218 106.372798,106.193518 106.201798,106.218718 C106.195498,107.854918 106.826398,108.618118 107.624698,109.573918 C108.301498,110.383018 109.035898,111.267718 109.493998,112.793218" id="Fill-27" fill="#50515F"></path>
                <path d="M98.4843884,122.153488 C98.3925884,124.674388 98.3151884,126.851488 98.3331884,128.353588 C98.3565884,130.296688 98.7849884,130.726888 98.8983884,130.735888 L98.9055884,130.736788 C99.1098884,130.736788 99.5976884,130.143688 99.8442884,128.727988 C100.052188,127.533688 100.301488,124.956988 100.516588,122.330788 C100.419388,122.335288 100.323088,122.341588 100.223188,122.341588 C99.6075884,122.341588 98.9739884,122.265088 98.4843884,122.153488" id="Fill-29" fill="#50515F"></path>
                <g id="Group-33" transform="translate(0.000000, 65.563199)">
                    <mask id="mask-2" fill="white">
                        <use xlink:href="#path-1"></use>
                    </mask>
                    <g id="Clip-32"></g>
                    <path d="M15.9181197,10.8884698 C15.9163197,10.2215698 16.0621197,9.59516985 16.5175197,9.08936986 C17.3401197,8.17586987 18.7432197,7.89056987 20.0167197,7.93106987 L20.0167197,2.19716997 C20.0167197,1.36016998 19.3381197,0.681569989 18.5011197,0.681569989 L1.51541998,0.681569989 C0.678419989,0.681569989 -0.000179999997,1.36016998 -0.000179999997,2.19716997 L-0.000179999997,11.5904698 C-0.000179999997,12.4274698 0.678419989,13.1060698 1.51541998,13.1060698 L8.36261987,13.1060698 L9.96191984,15.7295697 L10.0546198,15.7295697 L11.6539198,13.1060698 L16.2088197,13.1060698 C16.2079197,13.0943698 16.2034197,13.0817698 16.2025197,13.0700698 C16.1656197,12.3158698 15.9208197,11.9423698 15.9181197,10.8884698" id="Fill-31" fill="#54C0D6" mask="url(#mask-2)"></path>
                </g>
                <path d="M19.3584597,111.361948 C17.4972597,108.760048 15.8907597,106.502848 16.4262597,100.843648 L16.3668597,100.835548 C14.5911598,106.393948 16.9266597,110.882248 18.9930597,114.843148 C20.1315597,117.026548 21.1998597,119.092948 21.4023597,121.062148 C22.1511596,121.013548 22.8765596,120.959548 23.5794596,120.906448 C22.6452596,115.966348 20.9019597,113.519248 19.3584597,111.361948" id="Fill-34" fill="#50515F"></path>
                <path d="M23.0542196,121.465168 C23.1082196,121.934968 23.1541196,122.415568 23.1964196,122.923168 C23.2639196,123.749368 23.3341196,124.603468 23.4655196,125.452168 C23.6113196,126.402568 23.9821196,126.894868 24.1990196,126.894868 L24.2080196,126.894868 C24.3466196,126.884968 24.6139196,126.577168 24.6337196,125.475568 C24.6427196,124.978768 24.6607196,124.428868 24.6796196,123.843868 C24.7048196,123.071668 24.7300196,122.211268 24.7408196,121.340068 C24.4015196,121.365268 24.0559196,121.390468 23.7004196,121.417468 C23.4898196,121.433668 23.2684196,121.448968 23.0542196,121.465168" id="Fill-36" fill="#50515F"></path>
                <path d="M15.8515197,100.752388 C15.5581198,100.699288 15.2755198,100.642588 15.0181198,100.575088 C14.6473198,102.465988 14.1694198,106.665388 13.9876198,111.168988 C14.2135198,113.807788 15.1972198,115.938088 16.0054197,117.664288 C16.6246197,118.985488 17.1574197,120.134788 17.2366197,121.211188 C18.5056197,121.209388 19.7224197,121.161688 20.8852197,121.092388 C20.6854197,119.228488 19.6441197,117.213388 18.5335197,115.083088 C16.4293197,111.049288 14.0542198,106.480888 15.8515197,100.752388" id="Fill-38" fill="#50515F"></path>
                <path d="M28.2693595,95.9542185 C28.1667596,94.9084185 28.0632596,93.8482185 27.9489596,92.5108185 L27.9381596,92.4352185 C27.4854596,92.5369185 27.0219596,92.6089185 26.5512596,92.6089185 C26.4342596,92.6089185 26.3163596,92.6044185 26.1984596,92.5945185 L26.2173596,92.7205185 C26.5485596,95.4817185 26.8230596,97.2961185 27.1146596,99.2176184 C27.2784596,100.303918 27.4449596,101.404618 27.6249596,102.701518 C27.8022596,103.977718 28.1847596,104.503318 28.4196595,104.495218 C28.6383595,104.471818 28.9227595,103.863418 28.8372595,102.628618 C28.6212595,99.5353184 28.4502595,97.7956184 28.2693595,95.9542185" id="Fill-40" fill="#50515F"></path>
                <path d="M16.3214997,121.720408 C16.3322997,121.970608 16.3430997,122.219008 16.3520997,122.447608 C16.3925997,123.437608 16.4240997,124.219708 16.4816997,124.769608 C16.6184997,126.101608 16.7507997,126.777508 17.0936997,126.777508 C17.3618997,126.777508 17.5607997,126.417508 17.6633997,124.661608 C17.6957997,124.123408 17.7569997,123.574408 17.8235997,122.993908 C17.8685997,122.588908 17.9099997,122.157808 17.9486997,121.720408 C17.6831997,121.724908 17.4239997,121.733908 17.1539997,121.733908 C16.8812997,121.733908 16.5995997,121.724908 16.3214997,121.720408" id="Fill-42" fill="#50515F"></path>
                <path d="M15.5358898,117.884248 C14.9850898,116.707048 14.3496898,115.348948 13.9185898,113.765848 C13.8870898,116.369548 13.9770898,118.948948 14.2650898,121.126048 C15.1029898,121.179148 15.9192897,121.204348 16.7166897,121.211548 C16.6338897,120.238648 16.1253897,119.143348 15.5358898,117.884248" id="Fill-44" fill="#50515F"></path>
                <path d="M23.7563096,100.744738 C21.6845097,101.082238 19.0637097,101.143438 16.9415097,100.908538 C16.4267097,106.361638 17.9072097,108.441538 19.7801097,111.060538 C20.7233097,112.379938 21.7394097,113.807338 22.6097096,115.822438 C22.1759096,111.915538 22.7726096,108.764638 23.2793096,106.121338 C23.6672096,104.090038 23.9984096,102.325138 23.7563096,100.744738" id="Fill-46" fill="#50515F"></path>
                <path d="M24.2667896,100.653478 C24.5259896,102.323878 24.1866896,104.135578 23.7879896,106.218178 C23.1489896,109.558078 22.3542896,113.715178 23.7483896,119.188978 L23.7510896,119.242078 C23.8770896,119.751478 23.9931896,120.295978 24.1002896,120.867478 C24.6195896,120.828778 25.1271896,120.790978 25.6086896,120.760378 C24.0885896,115.886878 24.6105896,112.364278 25.1163896,108.955978 C25.4997896,106.366678 25.8966896,103.691878 25.4376896,100.369978 C25.0839896,100.477078 24.6888896,100.571578 24.2667896,100.653478" id="Fill-48" fill="#50515F"></path>
                <path d="M11.9916898,92.7538185 C11.9394898,93.2947185 11.8881898,93.8230185 11.8377898,94.3297185 C11.4894898,97.9000184 11.2140898,100.719718 11.1816898,103.156918 C11.1636898,104.551018 11.4408898,104.947018 11.6082898,104.961418 L11.6217898,104.961418 C11.8773898,104.961418 12.3417898,104.352118 12.4803898,103.472818 C12.6675898,102.289318 12.9195898,100.386718 13.1634898,98.5471184 C13.4298898,96.5464185 13.7034898,94.4782185 13.9059898,93.2317185 C13.9356898,93.0499185 13.9662898,92.8843185 13.9968898,92.7196185 C13.6584898,92.8033185 13.3191898,92.8429185 12.9807898,92.8429185 C12.6477898,92.8429185 12.3183898,92.8051185 11.9916898,92.7538185" id="Fill-50" fill="#50515F"></path>
                <path d="M24.5543396,86.2348486 C23.1467396,85.2637486 21.8174397,85.0171486 21.7058397,84.9982486 C20.8445397,84.8362486 20.6114397,83.4529487 21.1838397,82.6870487 C22.3493396,81.1093487 22.8650396,79.6000487 22.9451396,78.3895488 L22.8101396,78.2383488 C22.2836396,77.6524488 21.2657397,77.2888488 20.0876397,77.2645488 C18.6998397,77.2402488 17.4479397,77.6731488 16.6973397,78.4309488 C16.8575397,79.6630487 17.3822397,81.1714487 18.4298397,82.8868487 C18.9851397,83.7733487 18.6971397,84.7759487 17.5721397,85.0378486 L17.4038397,85.0810486 C16.4165397,85.3231486 15.6110398,85.6525486 14.9549398,86.0395486 C17.7233397,88.4974486 22.1405396,87.8773486 24.5543396,86.2348486" id="Fill-52" fill="#50515F"></path>
                <path d="M20.0977197,76.7463288 C21.2461197,76.7697288 22.2721196,77.0973288 22.9282196,77.6364288 C23.3656196,76.6905288 23.3962196,75.8724288 23.0119196,75.2568288 C22.5259196,74.4774288 21.3775197,74.0265288 19.9096197,74.0265288 C19.8124197,74.0265288 19.7134197,74.0283288 19.6135197,74.0319288 C18.1888197,74.0886288 17.1772197,74.5188288 16.6903197,75.2739288 C16.3024197,75.8760288 16.4059197,77.3592288 16.6462197,77.7840288 C17.5066197,77.1027288 18.7639197,76.7193288 20.0977197,76.7463288" id="Fill-54" fill="#50515F"></path>
                <path d="M26.1062996,120.600988 L26.8847996,120.567688 C26.8847996,120.567688 26.3537996,113.001388 25.8983996,107.115388 C25.8155996,107.764288 25.7228996,108.401488 25.6292996,109.031488 C25.1099996,112.533388 24.6239996,115.849888 26.1062996,120.600988" id="Fill-56" fill="#50515F"></path>
                <path d="M27.8671496,91.9192485 C27.4918496,89.2417486 26.2606496,87.5767486 24.9853496,86.5588486 C23.6335496,87.5272486 21.6364497,88.1923486 19.6006497,88.1923486 C17.7736497,88.1923486 15.9277497,87.6496486 14.5039498,86.3311486 C12.8740498,87.4795486 12.3421498,89.0167486 12.2251498,90.2875486 C12.1630498,90.9634486 12.1018498,91.6123485 12.0415498,92.2396485 C12.7300498,92.3494485 13.4338498,92.3710485 14.1124498,92.1478485 C14.3653498,91.0129486 14.6461498,90.4432486 14.9521498,90.4891486 C15.1303498,90.5089486 15.6037498,90.5620486 15.3607498,94.5760485 C15.3274498,95.1088485 15.1843498,97.2139485 14.9935498,100.015648 L14.9926498,100.028248 C17.2039497,100.657348 21.1423497,100.693348 23.9188496,100.192948 L23.9251496,100.191148 L23.9314496,100.191148 C24.5065496,100.086748 25.0303496,99.9598484 25.4785496,99.8104484 C25.2634496,97.0186485 24.7612496,92.5249485 24.7495496,92.2738485 C24.6739496,90.6862486 24.9691496,90.4774486 25.1986496,90.4576486 C25.5856496,90.4234486 25.9186496,91.1677485 26.1058496,92.0623485 C26.6953496,92.1316485 27.2893496,92.0506485 27.8671496,91.9192485" id="Fill-58" fill="#50515F"></path>
                <path d="M161.155167,53.4666591 L159.994167,52.0293592 L159.994167,46.1325593 C159.994167,45.2973593 159.317367,44.6205593 158.482167,44.6205593 L147.134068,44.6205593 C146.298868,44.6205593 145.622068,45.2973593 145.622068,46.1325593 L145.622068,52.0293592 C145.622068,52.8645592 146.298868,53.5413591 147.134068,53.5413591 L157.631667,53.5413591 L158.482167,53.5413591 L161.119167,53.5413591 L161.155167,53.4666591 Z" id="Fill-60" fill="#F06862"></path>
                <path d="M166.521597,47.8443592 C166.219197,47.9487592 165.952797,48.1062592 165.715197,48.2907592 C165.872697,48.3897592 166.049097,48.4392592 166.830297,48.2286592 C167.648397,48.0063592 168.118197,47.6832592 168.533097,47.3988592 C168.797697,47.2170592 169.042497,47.0550593 169.325997,46.9506593 C168.562797,46.8291593 168.200997,47.0253593 167.657397,47.3214592 C167.351397,47.4879592 167.004897,47.6760592 166.521597,47.8443592" id="Fill-62" fill="#50515F"></path>
                <path d="M170.267757,47.5994692 C170.227257,47.4320692 170.161557,47.3006692 170.076957,47.1998692 C169.696257,47.1827692 169.281357,47.4257692 168.969957,47.6327692 C169.374957,47.6714692 169.811457,47.6669692 170.267757,47.5994692" id="Fill-64" fill="#50515F"></path>
                <path d="M167.224767,46.2437993 C167.339067,46.2041993 167.457867,46.1645993 167.578467,46.1267993 C167.222067,46.0403993 166.851267,46.0727993 166.646967,46.1114993 C165.764067,46.2761993 164.992767,46.8125993 164.838867,47.3516992 C165.275367,46.9016993 165.879267,46.5830993 166.623567,46.4273993 C166.807167,46.3895993 167.009667,46.3184993 167.224767,46.2437993" id="Fill-66" fill="#50515F"></path>
                <path d="M166.378137,47.4309892 C166.827237,47.2752892 167.157537,47.0952893 167.449137,46.9368893 C167.862237,46.7118893 168.233937,46.5093893 168.773037,46.4805893 C168.658737,46.4328893 168.537237,46.4121893 168.405837,46.4121893 C168.110637,46.4121893 167.769537,46.5174893 167.368137,46.6569893 C167.139537,46.7361893 166.924437,46.8117893 166.712937,46.8558893 C165.860637,47.0331893 165.239637,47.4201892 164.868837,48.0051892 C164.681637,48.3003892 164.563737,48.6468892 164.521437,49.0086892 C164.906637,48.3453892 165.536637,47.7234892 166.378137,47.4309892" id="Fill-68" fill="#50515F"></path>
                <path d="M165.573627,55.8285291 C165.453927,56.9787291 165.507027,57.7635291 167.130627,58.7904291 L167.288127,58.6887291 L167.283627,58.6797291 C168.612027,57.9822291 168.658827,57.0741291 168.566127,55.8708291 C168.121527,55.4829291 168.429327,54.6090291 168.710127,54.2283291 C169.879227,52.6461292 170.275227,51.1719292 170.231127,50.0127292 C169.621827,49.2639292 168.778527,48.7554292 167.934327,48.4125292 L167.781327,48.3486292 C167.541927,48.4584292 167.268327,48.5628292 166.944327,48.6501292 C166.511427,48.7680292 166.222527,48.8148292 166.011027,48.8148292 C165.734727,48.8148292 165.589827,48.7347292 165.425127,48.6249292 L165.377427,48.5970292 C164.963427,49.0299292 164.686227,49.5528292 164.572827,50.0217292 L164.446827,50.5437292 C164.484627,51.5796292 164.842827,52.8288292 165.715827,54.2571291 C165.869727,54.5100291 166.090227,55.3335291 165.573627,55.8285291" id="Fill-70" fill="#50515F"></path>
                <path d="M168.044127,58.7155491 C168.169227,58.7776491 168.293427,58.8667491 168.414027,58.9810491 C168.874827,58.7173491 169.477827,58.1188491 169.539027,57.4609491 C169.576827,57.0550491 169.405827,56.6689491 169.028727,56.3071491 C169.058427,57.2260491 168.911727,58.0495491 168.044127,58.7155491" id="Fill-72" fill="#50515F"></path>
                <path d="M165.830397,59.1166791 C165.959997,58.9213791 166.102197,58.7872791 166.262397,58.7098791 C165.345297,57.9655791 165.110397,57.2653791 165.098697,56.5129791 C164.911497,56.8747791 164.852097,57.2671791 164.925897,57.6739791 C165.049197,58.3480791 165.482097,58.8745791 165.830397,59.1166791" id="Fill-74" fill="#50515F"></path>
                <path d="M173.585157,64.081979 C173.314257,64.081979 173.054157,64.057679 172.826457,64.008179 C173.052357,66.8620789 173.278257,68.8204789 173.592357,71.2396789 C173.891157,73.5382788 175.074657,73.2475788 175.074657,71.0506789 C175.074657,67.6846789 175.071057,66.1213789 174.980157,63.904679 C174.619257,64.007279 174.092757,64.081979 173.585157,64.081979" id="Fill-76" fill="#50515F"></path>
                <path d="M170.141487,84.7586687 C169.784187,84.7586687 169.404387,84.7217687 169.022787,84.6623687 C169.285587,86.7161686 169.613187,89.2748686 170.083887,92.3303685 C170.327787,93.9107685 171.711987,94.2671685 171.747087,92.2835685 C171.783087,90.2630686 171.791187,87.5396686 171.782187,84.5579687 C171.389787,84.6713687 170.805687,84.7586687 170.141487,84.7586687" id="Fill-78" fill="#50515F"></path>
                <path d="M171.781197,84.1031087 C171.769497,80.3645087 171.734397,76.2668088 171.700197,72.6470088 C170.438397,72.9206088 168.469197,73.0322088 166.651197,73.0322088 C165.032097,73.0322088 163.545297,72.9440088 162.779397,72.8045088 C162.937797,76.4918088 163.123197,80.6120087 163.295997,84.1409087 C163.673097,84.2849087 164.759397,84.4550087 165.946497,84.2714087 C166.036497,83.0861087 166.133697,81.9971087 166.240797,81.1457087 C166.814097,76.5962088 167.797797,76.4504088 168.535797,81.0881087 C168.668097,81.9233087 168.804897,82.9682087 168.965097,84.2147087 C170.183697,84.4298087 171.335697,84.2579087 171.781197,84.1031087" id="Fill-80" fill="#50515F"></path>
                <path d="M168.421947,47.9983492 L168.284247,48.0829492 C169.069947,48.4051492 169.911447,48.7876492 170.415447,49.5490492 C170.960847,48.8704492 170.721447,48.4645492 170.309247,48.0406492 C169.618947,48.1405492 168.985347,48.1000492 168.421947,47.9983492" id="Fill-82" fill="#50515F"></path>
                <path d="M174.961347,63.462689 C174.945147,63.090989 174.926247,62.698589 174.903747,62.274689 C174.598647,56.3211891 171.033747,56.2014891 169.427247,56.0961891 C169.919547,56.6226891 170.008647,57.1329891 169.974447,57.5010891 C169.889847,58.4082891 169.037547,59.1867891 168.459747,59.4486891 L168.313047,59.5161891 L168.205947,59.3955891 C167.956647,59.1156891 167.692947,58.9968891 167.501247,59.0715891 C167.369847,59.1246891 166.946847,59.4180891 167.002647,60.991289 C167.051247,62.385389 167.174547,64.313189 167.292447,66.1779889 C167.461647,68.8284889 167.621847,71.3421889 167.598447,72.5841888 C169.132947,72.5544888 170.673747,72.4410888 171.696147,72.2016889 C171.652047,67.4829889 171.612447,63.666989 171.634947,62.708489 C171.688047,60.380189 172.561047,60.390089 172.717647,62.566289 C172.741947,62.908289 172.767147,63.234089 172.791447,63.552689 C173.383647,63.740789 174.543747,63.605789 174.961347,63.462689" id="Fill-84" fill="#50515F"></path>
                <path d="M159.357867,63.845729 C159.264267,67.2081289 159.108567,70.1313289 159.129267,71.8539289 C159.160767,74.5197288 160.279467,74.1048288 160.618767,72.1500289 C160.870767,70.7019289 161.210067,66.4062289 161.363067,63.942929 C161.156067,63.983429 160.924767,64.004129 160.681767,64.004129 C160.215567,64.004129 159.724167,63.938429 159.357867,63.845729" id="Fill-86" fill="#50515F"></path>
                <path d="M163.319217,84.6044987 C163.474017,87.7490986 163.618017,90.3725986 163.717917,91.6991985 C163.911417,94.2713985 165.324417,94.4423985 165.495417,91.5272985 C165.610617,89.5778986 165.747417,86.9975986 165.913917,84.7115987 C165.562017,84.7601987 165.213717,84.7916987 164.887017,84.7916987 C164.248017,84.7916987 163.691817,84.7115987 163.319217,84.6044987" id="Fill-88" fill="#50515F"></path>
                <path d="M167.160867,72.5886888 C167.185167,71.3646889 167.017767,68.7447889 166.856667,66.2058889 C166.737867,64.338389 166.614567,62.406989 166.565067,61.006589 C166.532667,60.069689 166.663167,59.4981891 166.851267,59.1462891 C166.741467,59.0913891 166.619967,59.0481891 166.504767,59.0841891 C166.367967,59.1246891 166.229367,59.2731891 166.103367,59.5152891 L166.007067,59.699789 L165.818067,59.6133891 C165.297867,59.3757891 164.657967,58.6422891 164.495967,57.7512891 C164.420367,57.3345891 164.432967,56.7585891 164.793867,56.1654891 C163.602267,56.3391891 159.450567,56.7027891 159.421767,60.400889 C159.414567,61.424189 159.394767,62.430389 159.369567,63.404189 C159.846567,63.535589 160.837467,63.645389 161.390067,63.491489 C161.401767,63.287189 161.412567,63.094589 161.420667,62.930789 C161.569167,59.940989 162.389067,60.032789 162.389067,62.728289 C162.389067,63.309689 162.547467,67.3884889 162.759867,72.3573888 C163.476267,72.5031888 165.272667,72.6057888 167.160867,72.5886888" id="Fill-90" fill="#50515F"></path>
                <path d="M332.481595,35.3835894 C328.462195,35.3835894 325.203295,37.6596894 325.203295,40.4676894 C325.203295,42.9903893 327.834895,45.0774893 331.283695,45.4779893 L332.441995,47.3796892 L332.521195,47.3796892 L333.679495,45.4779893 C337.128295,45.0774893 339.759895,42.9903893 339.759895,40.4676894 C339.759895,37.6596894 336.500995,35.3835894 332.481595,35.3835894" id="Fill-92" fill="#48B971"></path>
                <path d="M315.855265,71.3751289 C315.853465,71.6055289 315.852565,71.8269289 315.855265,72.0258289 C315.870565,73.3857288 316.171165,73.6881288 316.250365,73.6944288 C316.403365,73.7268288 316.738165,73.2912288 316.913665,72.2877288 C316.949665,72.0798289 316.987465,71.8116289 317.026165,71.4993289 L317.013565,71.4993289 C316.623865,71.4993289 316.208965,71.4489289 315.855265,71.3751289" id="Fill-94" fill="#50515F"></path>
                <path d="M323.382055,73.1232888 C323.697055,70.3044889 323.499955,67.8078889 323.342455,65.793689 C323.264155,64.801889 323.190355,63.865889 323.190355,63.050489 C323.190355,62.782289 323.201155,62.533889 323.218255,62.298089 L323.214655,62.285489 C323.120155,60.756389 322.511755,59.885189 321.924055,59.0436891 C321.411055,58.3083891 320.926855,57.6072891 320.922355,56.5848891 C319.431055,56.7954891 316.173055,57.3948891 316.147855,60.553889 C316.129855,63.059489 316.042555,65.433689 315.966055,67.5288889 C315.919255,68.8176889 315.877855,69.9777889 315.860755,70.9317889 C316.209955,71.0082889 316.670755,71.0667889 317.077555,71.0622889 C317.342155,68.7285889 317.634655,64.654289 317.712955,63.076589 C317.793955,61.453889 318.051355,60.630389 318.478855,60.630389 L318.487855,60.631289 C319.011655,60.643889 319.121455,61.864289 319.121455,62.884889 C319.121455,63.394289 319.282555,67.5504889 319.499455,72.6138888 C321.248155,73.1412888 322.548655,73.1970888 323.382055,73.1232888" id="Fill-96" fill="#50515F"></path>
                <path d="M331.224025,62.441189 C330.933325,56.7792891 327.620425,56.5659891 326.029225,56.4633891 L326.013025,56.4615891 C326.008525,57.6450891 325.523425,58.2822891 325.005025,58.9464891 C324.359725,59.774489 323.628925,60.712289 323.628925,63.050489 C323.628925,63.848789 323.698225,64.733489 323.778325,65.759489 C323.929525,67.6746889 324.108625,70.0263889 323.862025,72.6840888 C325.446925,72.8244888 327.190225,72.6552888 328.009225,72.3834888 C328.004725,71.8884889 328.000225,71.4006889 327.995725,70.9272889 C327.957925,66.9024889 327.928225,63.722789 327.947125,62.859689 C327.964225,62.127089 328.080325,60.895889 328.671625,60.881489 L328.682425,60.881489 C329.253025,60.881489 329.421325,62.022689 329.469925,62.706689 C329.694925,65.831489 329.909125,67.9059889 330.194425,70.2009889 C330.570625,70.2252889 331.021525,70.1838889 331.393225,70.1172889 C331.391425,66.7233889 331.371625,65.326589 331.224025,62.441189" id="Fill-98" fill="#50515F"></path>
                <path d="M323.428135,60.976439 C323.711635,59.897339 324.204835,59.2601391 324.660235,58.6769391 C325.175035,58.0163391 325.582735,57.4799391 325.576435,56.4242391 L325.413535,56.4044391 C324.977035,56.3234391 324.790735,56.0660391 324.711535,55.8653391 C324.494635,55.3163391 324.809635,54.5756391 325.059835,54.2372391 C326.714935,51.9989392 326.773435,50.0126392 326.276635,48.8993392 L326.188435,48.7256392 C325.420735,48.6077392 324.625135,48.5258392 323.822335,48.4844392 C323.132935,48.4493392 322.432735,48.4430392 321.739735,48.4682392 C321.320335,49.0937392 320.432935,51.0260392 322.422835,54.2822391 C322.588435,54.5540391 322.736935,55.1651391 322.546135,55.6727391 C322.403035,56.0543391 322.092535,56.3297391 321.648835,56.4683391 C321.585835,56.4881391 321.484135,56.5052391 321.363535,56.5232391 C321.349135,57.4430391 321.782035,58.0748391 322.284235,58.7930391 C322.703635,59.3942391 323.159035,60.057539 323.428135,60.976439" id="Fill-100" fill="#50515F"></path>
                <path d="M325.036075,73.1724288 C324.622075,73.1724288 324.212575,73.1526288 323.819275,73.1175288 L323.796775,73.3488288 L323.776975,73.5216288 L323.604175,73.5414288 C323.320675,73.5738288 323.027275,73.5900288 322.723975,73.5900288 C321.749275,73.5900288 320.672875,73.4100288 319.518175,73.0725288 C319.825975,80.2311287 320.233675,89.0043286 320.451475,91.8969285 C320.543275,93.1083285 320.911375,93.6699285 321.132775,93.6699285 L321.133675,93.6699285 C321.346075,93.6681285 321.713275,93.1398285 321.796075,91.7286285 L321.878875,90.2940286 C322.052575,87.2763286 322.266775,83.5206287 322.544875,81.3111287 C323.005675,77.6526288 323.623975,77.6418288 323.856175,77.6382288 C324.253075,77.6562288 324.766975,78.0378288 325.277275,81.2463287 C325.427575,82.1940287 325.578775,83.3748287 325.770475,84.8715286 C326.034175,86.9217286 326.359975,89.4741286 326.829775,92.5125285 C326.940475,93.2352285 327.318475,93.6762285 327.590275,93.6447285 C327.813475,93.6294285 328.045675,93.2676285 328.060075,92.4954285 C328.142875,87.8559286 328.075375,79.5399287 328.013275,72.8376288 C327.295075,73.0473288 326.169175,73.1724288 325.036075,73.1724288" id="Fill-102" fill="#50515F"></path>
                <path d="M323.880115,46.3552193 C324.811615,46.4038193 325.745815,46.5127193 326.631415,46.6702193 L324.799915,44.0152193 C324.574015,43.7488193 324.176215,43.7155193 323.909815,43.9405193 L321.482515,46.3597193 C322.267315,46.3165193 323.076415,46.3138193 323.880115,46.3552193" id="Fill-104" fill="#50515F"></path>
                <path d="M321.508435,48.0389392 L321.613735,48.0344392 C322.356235,48.0038392 323.106835,48.0083392 323.845735,48.0470392 C324.699835,48.0911392 325.546735,48.1793392 326.361235,48.3089392 L326.464735,48.3260392 L326.516935,48.4160392 C326.572735,48.5141392 326.628535,48.6131392 326.677135,48.7211392 C326.979535,49.3997392 327.099235,50.3654392 326.848135,51.4967392 C329.603035,51.2303392 331.346335,50.4257392 331.390435,49.5734392 C331.449835,48.4223392 328.436635,47.0309393 323.857435,46.7924393 C323.422735,46.7699393 323.000635,46.7591393 322.593835,46.7591393 C318.708535,46.7591393 316.130935,47.7365392 316.076035,48.7787392 C316.046335,49.3628392 316.801435,49.9982392 318.148735,50.5220392 C318.906535,50.8172392 319.810135,51.0539392 320.792935,51.2321392 C320.570635,49.5446392 321.170935,48.4970392 321.446335,48.1235392 L321.508435,48.0389392 Z" id="Fill-106" fill="#50515F"></path>
                <path d="M330.438325,70.6457689 L330.250225,70.6394689 C330.280825,70.8842689 330.312325,71.1317689 330.345625,71.3846689 C330.484225,72.4547688 330.794725,72.7931688 330.929725,72.7931688 L330.934225,72.7931688 C331.094425,72.7823688 331.394125,72.3116688 331.394125,71.2235689 L331.394125,70.5602689 C331.089925,70.6124689 330.756025,70.6457689 330.438325,70.6457689" id="Fill-108" fill="#50515F"></path>
                <path d="M246.868826,96.5458785 C237.178526,96.5458785 229.324226,102.033178 229.324226,108.802978 C229.324226,111.219478 230.338526,113.464078 232.067426,115.360378 C232.135826,115.285678 232.201526,115.207378 232.274426,115.139878 C233.284226,114.209278 234.780926,113.607178 236.087726,113.607178 C236.402726,113.607178 236.706926,113.641378 236.994926,113.708878 C238.988426,114.169678 239.946026,114.899578 241.094426,116.832778 C241.624526,117.722878 241.877426,118.992778 241.722626,120.496678 C242.457926,120.654178 243.207626,120.790078 243.980726,120.880078 L246.669026,125.290978 C246.759926,125.440378 246.977726,125.440378 247.068626,125.290978 L249.756926,120.880078 C258.069326,119.915278 264.413426,114.883378 264.413426,108.802978 C264.413426,102.033178 256.558226,96.5458785 246.868826,96.5458785" id="Fill-110" fill="#F06862"></path>
                <path d="M226.724936,147.440338 C226.006736,147.228838 225.217436,147.148738 224.387636,147.142438 C224.007836,151.111438 223.783736,153.743038 223.745936,156.668038 C223.718936,158.698437 224.116736,159.189837 224.258036,159.201537 L224.269736,159.201537 C224.560436,159.202437 225.211136,158.363637 225.408236,157.113537 C225.684536,155.363038 226.058036,152.549638 226.418936,149.828938 C226.560236,148.763338 226.585436,148.469938 226.724936,147.440338" id="Fill-112" fill="#50515F"></path>
                <path d="M240.437426,117.223468 C239.391626,115.463968 238.614926,114.869068 236.820326,114.454168 C235.422626,114.127468 233.734226,114.834868 232.793726,115.702468 C231.180926,117.189268 230.967626,121.284268 234.312926,126.759868 C234.810626,127.705768 234.789026,128.657068 233.894426,129.615568 C236.737526,129.903568 237.654626,129.443668 237.935426,129.188968 C237.330626,128.425768 237.549326,127.504168 238.375526,126.464668 C241.252826,122.571268 241.461626,118.945168 240.437426,117.223468" id="Fill-114" fill="#50515F"></path>
                <path d="M235.052636,132.052858 C233.867336,132.052858 232.832336,131.861158 231.821636,131.673958 C230.622836,131.451658 229.465436,131.244658 228.077636,131.322058 C227.339636,131.454358 226.813136,131.850358 226.672736,132.226558 C226.612436,132.387658 226.617836,132.541558 226.689836,132.692758 C227.993936,132.015058 229.813736,132.223858 232.071836,132.483058 C232.481336,132.529858 232.907936,132.578458 233.351636,132.625258 C235.481936,132.846658 238.216136,132.566758 239.306036,131.599258 C239.916236,131.057458 240.177236,130.486858 240.023336,130.035058 C239.993636,129.947758 239.942336,129.868558 239.882936,129.792058 L239.833436,129.994558 C239.435636,130.982758 238.154936,131.734258 236.489936,131.956558 C235.984136,132.024058 235.507136,132.052858 235.052636,132.052858" id="Fill-116" fill="#50515F"></path>
                <path d="M231.055736,153.152818 C230.576036,155.433418 231.206036,159.007317 231.943136,163.141017 C232.981736,168.973917 234.263336,176.203617 232.949336,182.979717 C235.392836,183.087717 238.024436,183.199317 240.833336,183.169617 C240.955736,183.154317 241.079036,183.140817 241.200536,183.122817 L241.205936,183.166017 C242.964536,183.139917 244.791536,183.055317 246.686936,182.874417 C247.653536,173.229117 245.604236,157.582617 244.447736,152.560618 C240.969236,153.592918 235.148936,153.808018 231.055736,153.152818" id="Fill-118" fill="#50515F"></path>
                <path d="M231.191816,129.987448 C230.512316,129.858748 229.660916,130.029748 229.063316,130.547248 C230.112716,130.584148 231.047816,130.752448 231.960416,130.921648 C233.362616,131.180848 234.687416,131.425648 236.388416,131.198848 C237.759116,131.015248 238.832816,130.431148 239.123516,129.709348 C239.172116,129.588748 239.047916,129.286348 238.806716,129.237748 C238.755416,129.380848 238.664516,129.541048 238.508816,129.698548 C237.590816,130.628248 235.129316,130.725448 231.191816,129.987448" id="Fill-120" fill="#50515F"></path>
                <g id="Group-124" transform="translate(241.199996, 183.463197)">
                    <mask id="mask-4" fill="white">
                        <use xlink:href="#path-3"></use>
                    </mask>
                    <g id="Clip-123"></g>
                    <path d="M0.271439996,2.35646996 C0.372239994,3.57326994 0.474839992,4.83146992 0.667439989,6.0788699 C0.890639986,7.52876988 1.45673998,8.10026987 1.62953997,8.10026987 C1.72403997,8.09306987 2.11013997,7.72316988 2.13803997,6.1301699 C2.15063997,5.39666991 2.17763997,4.58486993 2.20553996,3.72086994 C2.23883996,2.69216996 2.27123996,1.55546998 2.29013996,0.399869994 C1.54493998,0.433169993 0.813239987,0.452969993 0.0914399985,0.464669993 C0.158039997,1.07666998 0.217439997,1.70036997 0.271439996,2.35646996" id="Fill-122" fill="#50515F" mask="url(#mask-4)"></path>
                </g>
                <path d="M233.271536,133.386118 C232.825136,133.339318 232.395836,133.290718 231.984536,133.243018 C229.755236,132.987418 228.114536,132.808318 227.021036,133.396018 C225.862736,134.787418 225.408236,136.340818 225.284036,137.689918 C225.086036,139.844518 224.892536,141.822718 224.714336,143.655118 C224.621636,144.600118 224.534336,145.498318 224.450636,146.374918 C225.378536,146.241718 226.260536,146.367718 226.851836,146.587318 C227.093936,144.798118 227.324336,143.160118 227.512436,142.002718 C228.206336,137.729518 228.902936,137.818618 229.194536,137.849218 C229.573436,137.891518 230.277236,137.969818 229.910036,144.014218 C229.862336,144.798118 229.651736,147.890518 229.370936,152.009818 C233.213036,153.082618 240.515636,152.974618 244.369436,151.779418 C244.344236,151.461718 244.319936,151.144918 244.295636,150.835318 C243.849236,145.118518 243.526136,140.987518 243.509036,140.615818 C243.419036,138.724018 243.659336,137.856418 244.287536,137.803318 C245.235236,137.753818 245.770736,139.934518 245.928236,141.253018 C246.163136,143.210518 246.378236,144.841318 246.587036,146.326318 C247.307036,146.016718 248.051336,145.867318 248.684036,145.854718 C248.539136,144.374218 248.391536,142.859518 248.228636,140.968618 C247.636436,134.063818 243.267836,131.438518 240.803636,130.495318 C240.738836,131.058718 240.410336,131.641918 239.813636,132.171118 C238.501436,133.337518 235.502636,133.620118 233.271536,133.386118" id="Fill-125" fill="#50515F"></path>
                <path d="M231.312146,183.674877 C231.334646,184.181577 231.356246,184.673877 231.374246,185.122977 C231.433646,186.581877 231.480446,187.734777 231.564146,188.541177 C231.745046,190.299777 231.938546,191.389677 232.340846,191.389677 C232.712546,191.389677 232.932146,190.463577 233.054546,188.388177 C233.101346,187.589877 233.193146,186.778977 233.290346,185.920377 C233.366846,185.237277 233.438846,184.517277 233.500046,183.769377 C233.263346,183.758577 233.021246,183.748677 232.788146,183.737877 C232.283246,183.716277 231.794546,183.694677 231.312146,183.674877" id="Fill-127" fill="#50515F"></path>
                <path d="M228.550046,152.239768 L228.604946,151.783468 L228.619346,151.787968 C228.894746,147.759568 229.099946,144.740068 229.146746,143.966968 C229.345646,140.673868 229.200746,139.358068 229.083746,138.850468 C228.886646,139.275268 228.574346,140.237368 228.267446,142.125568 C228.009146,143.718568 227.668946,146.236768 227.326946,148.805368 C226.521446,159.122967 225.789746,172.208967 225.842846,176.544267 C226.157846,176.469567 226.550246,176.424567 226.975946,176.392167 C227.319746,170.963367 227.863346,162.912867 228.316046,156.243868 C228.315146,154.977568 228.379946,153.652768 228.550046,152.239768" id="Fill-129" fill="#50515F"></path>
                <path d="M247.250696,150.835768 C247.493696,152.438668 247.739396,154.063168 248.004896,155.977468 C248.276696,157.934967 248.853596,158.491167 249.038096,158.514567 C249.211796,158.495667 249.674396,157.816167 249.539396,155.896468 C249.243296,151.647568 249.003896,149.131168 248.758196,146.612068 C248.157896,146.615668 247.397396,146.765068 246.697196,147.105268 C246.883496,148.401268 247.065296,149.607268 247.250696,150.835768" id="Fill-131" fill="#50515F"></path>
                <path d="M247.247816,156.082678 C246.981416,154.171978 246.736616,152.550178 246.494516,150.949978 C246.064316,148.110478 245.659316,145.427578 245.168816,141.345178 C244.993316,139.888978 244.618916,138.975478 244.385816,138.664078 C244.315616,138.879178 244.216616,139.401178 244.273316,140.579278 C244.290416,140.940178 244.628816,145.280878 245.058116,150.776278 C245.097716,151.283878 245.138216,151.805878 245.179616,152.335978 C246.142616,156.457978 247.670816,167.370477 247.708616,176.639577 C248.120816,176.519877 248.495216,176.382177 248.772416,176.202177 C249.603116,171.401577 249.555416,165.288777 249.095516,159.273177 C248.246816,159.341577 247.535816,158.157177 247.247816,156.082678" id="Fill-133" fill="#50515F"></path>
                <path d="M229.373726,165.562107 C229.140626,164.270607 228.910226,162.959307 228.720326,161.603907 C228.127226,170.389707 227.508026,179.726307 227.412626,182.049207 L227.469326,182.203107 L227.653826,182.276907 L229.293626,182.305707 C231.139526,175.414407 230.285426,170.620107 229.373726,165.562107" id="Fill-135" fill="#50515F"></path>
                <path d="M231.189836,163.275027 C230.441936,159.077427 229.803836,155.446828 230.304236,153.017728 C229.960436,152.949328 229.627436,152.875528 229.317836,152.793628 C229.241336,153.909628 229.161236,155.097628 229.076636,156.333328 C229.090136,159.676827 229.613936,162.587427 230.126036,165.426927 C231.028736,170.429127 231.960236,175.599627 229.942436,182.858127 C230.656136,182.880627 231.407636,182.912127 232.178036,182.946327 C233.500136,176.278227 232.223936,169.077327 231.189836,163.275027" id="Fill-137" fill="#50515F"></path>
                <path d="M233.121596,65.370959 C233.290796,65.878559 233.765996,66.2214589 234.302396,66.2214589 L241.270196,66.2214589 C241.805696,66.2214589 242.280896,65.878559 242.450996,65.370959 L243.350096,62.671859 L243.350996,62.670059 C243.393296,62.541359 243.413996,62.407259 243.413996,62.277659 C243.413996,61.941959 243.278996,61.634159 243.059396,61.408259 C242.840696,61.182359 242.517596,61.032959 242.170196,61.033859 L233.402396,61.033859 C233.054096,61.032959 232.730996,61.181459 232.512296,61.408259 C232.291796,61.634159 232.157696,61.941959 232.157696,62.277659 C232.157696,62.405459 232.177496,62.543159 232.224296,62.678159 L232.221596,62.671859 L233.121596,65.370959 Z" id="Fill-139" fill="#50515F"></path>
                <path d="M229.270046,20.7755997 C229.312346,20.7350997 229.370846,20.6963997 229.515746,20.6936997 C229.612946,20.6954997 229.657946,20.7080997 229.723646,20.7458997 C229.819946,20.8007997 229.982846,20.9717997 230.185346,21.3596997 C230.201546,21.3911997 230.220446,21.4325997 230.237546,21.4667997 L230.008946,21.4667997 C229.663346,21.4658997 229.467146,21.3704997 229.354646,21.2714997 C229.242146,21.1715997 229.202546,21.0572997 229.201646,20.9600997 C229.202546,20.8790997 229.229546,20.8169997 229.270046,20.7755997 M245.575346,21.0401997 C245.691446,20.8682997 245.784146,20.7845997 245.848946,20.7458997 C245.914646,20.7080997 245.958746,20.6954997 246.056846,20.6936997 C246.200846,20.6963997 246.259346,20.7350997 246.301646,20.7755997 L246.370046,20.9600997 C246.369146,21.0572997 246.329546,21.1715997 246.217046,21.2714997 C246.104546,21.3704997 245.908346,21.4658997 245.563646,21.4667997 L245.335946,21.4667997 C245.421446,21.2957997 245.502446,21.1463997 245.575346,21.0401997 M230.008946,22.3667996 L230.629046,22.3667996 C230.720846,22.6025996 230.818046,22.8563996 230.924246,23.1515996 C231.706346,25.3214996 232.490246,27.5867996 233.078846,29.3093995 C233.587346,30.7970995 233.948246,31.8725995 234.037346,32.1407995 L234.037346,43.8542993 C234.037346,44.1026993 234.238946,44.3042993 234.487346,44.3042993 C234.735746,44.3042993 234.937346,44.1026993 234.937346,43.8542993 L234.937346,32.0678995 L234.913946,31.9247995 C234.913946,31.9229995 233.339846,27.2006996 231.771146,22.8464996 C231.707246,22.6709996 231.650546,22.5224996 231.591146,22.3667996 L231.748646,22.3667996 C232.110446,22.3712996 232.397546,22.1516996 232.551446,21.9437997 C232.793546,21.6278997 232.912346,21.2750997 233.047346,21.0311997 C233.110346,20.9096997 233.173346,20.8232997 233.212046,20.7890997 L233.261546,20.7611997 C233.276846,20.7656997 233.273246,20.7467997 233.355146,20.8394997 C233.468546,20.9744997 233.597246,21.2993997 233.763746,21.6206997 C233.851046,21.7817997 233.950946,21.9482997 234.109346,22.0976996 C234.263246,22.2470996 234.506246,22.3703996 234.771746,22.3667996 C235.133546,22.3712996 235.418846,22.1507996 235.572746,21.9428997 C235.813946,21.6269997 235.931846,21.2741997 236.065946,21.0302997 C236.128946,20.9096997 236.191946,20.8223997 236.230646,20.7881997 L236.277446,20.7611997 C236.292746,20.7656997 236.290046,20.7458997 236.371046,20.8394997 C236.483546,20.9744997 236.613146,21.2993997 236.779646,21.6206997 C236.866046,21.7817997 236.966846,21.9482997 237.124346,22.0976996 C237.241346,22.2110996 237.417746,22.2911996 237.608546,22.3298996 C237.663446,22.3532996 237.722846,22.3667996 237.785846,22.3667996 L237.785846,22.3667996 C238.148546,22.3712996 238.433846,22.1507996 238.588646,21.9437997 C238.828946,21.6269997 238.947746,21.2741997 239.081846,21.0311997 C239.145746,20.9096997 239.208746,20.8223997 239.246546,20.7881997 L239.295146,20.7611997 C239.309546,20.7656997 239.305946,20.7458997 239.386946,20.8394997 C239.500346,20.9744997 239.629046,21.2993997 239.794646,21.6197997 C239.881946,21.7808997 239.981846,21.9482997 240.140246,22.0976996 C240.293246,22.2461996 240.536246,22.3703996 240.801746,22.3667996 C241.163546,22.3712996 241.449746,22.1516996 241.603646,21.9437997 C241.844846,21.6269997 241.963646,21.2741997 242.097746,21.0311997 C242.160746,20.9096997 242.224646,20.8223997 242.263346,20.7881997 L242.311046,20.7611997 C242.327246,20.7656997 242.324546,20.7467997 242.406446,20.8394997 C242.518946,20.9753997 242.648546,21.2993997 242.815046,21.6206997 C242.902346,21.7817997 243.003146,21.9491997 243.161546,22.0976996 C243.315446,22.2470996 243.557546,22.3703996 243.823046,22.3667996 L243.979646,22.3667996 C243.922046,22.5197996 243.863546,22.6754996 243.801446,22.8464996 C242.232746,27.2006996 240.658646,31.9229995 240.657746,31.9247995 L240.635246,32.0678995 L240.635246,43.8542993 C240.635246,44.1026993 240.835946,44.3042993 241.085246,44.3042993 C241.333646,44.3042993 241.535246,44.1026993 241.535246,43.8542993 L241.534346,32.1407995 C241.624346,31.8725995 241.984346,30.7970995 242.492846,29.3093995 C243.081446,27.5867996 243.866246,25.3214996 244.648346,23.1515996 C244.753646,22.8590996 244.850846,22.6007996 244.942646,22.3667996 L245.563646,22.3667996 C246.080246,22.3676996 246.513146,22.2119996 246.812846,21.9455997 C247.113446,21.6809997 247.270046,21.3164997 247.270046,20.9600997 C247.270046,20.6666997 247.162946,20.3696997 246.946046,20.1473997 C246.730046,19.9232997 246.406946,19.7909997 246.056846,19.7936997 C245.836346,19.7918997 245.592446,19.8458997 245.380946,19.9772997 C245.059646,20.1770997 244.829246,20.4911997 244.589846,20.9411997 C244.509746,21.0950997 244.426946,21.2741997 244.342346,21.4667997 L243.823046,21.4667997 C243.806846,21.4622997 243.810446,21.4811997 243.728546,21.3884997 C243.615146,21.2525997 243.486446,20.9285997 243.319946,20.6072997 C243.232646,20.4461997 243.131846,20.2787997 242.973446,20.1302997 C242.818646,19.9808997 242.576546,19.8575997 242.311046,19.8611997 C241.949246,19.8566997 241.663046,20.0771997 241.508246,20.2841997 C241.267946,20.6009997 241.149146,20.9537997 241.014146,21.1967997 C240.951146,21.3182997 240.888146,21.4055997 240.849446,21.4397997 L240.801746,21.4667997 C240.786446,21.4631997 240.790046,21.4820997 240.708146,21.3884997 C240.595646,21.2534997 240.466946,20.9285997 240.301346,20.6081997 C240.214046,20.4470997 240.114146,20.2796997 239.955746,20.1302997 C239.802746,19.9817997 239.559746,19.8575997 239.295146,19.8611997 C238.932446,19.8566997 238.646246,20.0771997 238.492346,20.2850997 C238.252046,20.6009997 238.133246,20.9537997 237.999146,21.1976997 C237.935246,21.3182997 237.872246,21.4055997 237.833546,21.4397997 L237.785846,21.4667997 C237.771446,21.4631997 237.774146,21.4820997 237.692246,21.3884997 C237.579746,21.2534997 237.451046,20.9285997 237.284546,20.6081997 C237.198146,20.4461997 237.097346,20.2796997 236.938946,20.1302997 C236.785946,19.9817997 236.542946,19.8575997 236.277446,19.8611997 C235.915646,19.8566997 235.629446,20.0771997 235.476446,20.2850997 C235.235246,20.6009997 235.117346,20.9537997 234.983246,21.1976997 C234.919346,21.3182997 234.856346,21.4055997 234.818546,21.4397997 L234.771746,21.4667997 C234.755546,21.4622997 234.759146,21.4820997 234.677246,21.3884997 C234.564746,21.2534997 234.435146,20.9285997 234.268646,20.6072997 C234.182246,20.4461997 234.081446,20.2796997 233.923046,20.1302997 C233.769146,19.9808997 233.526146,19.8575997 233.261546,19.8611997 C232.899746,19.8566997 232.612646,20.0762997 232.457846,20.2841997 C232.216646,20.6009997 232.097846,20.9537997 231.963746,21.1967997 C231.899846,21.3182997 231.836846,21.4046997 231.798146,21.4388997 L231.748646,21.4667997 L231.232046,21.4667997 C231.063746,21.0824997 230.905346,20.7791997 230.742446,20.5361997 C230.580446,20.2967997 230.404946,20.1077997 230.191646,19.9772997 C229.979246,19.8458997 229.736246,19.7918997 229.515746,19.7936997 C229.164746,19.7909997 228.841646,19.9223997 228.625646,20.1473997 C228.407846,20.3696997 228.301646,20.6666997 228.301646,20.9600997 C228.301646,21.3173997 228.458246,21.6809997 228.758846,21.9464997 C229.059446,22.2119996 229.491446,22.3676996 230.008946,22.3667996" id="Fill-141" fill="#54C0D6"></path>
                <path d="M237.786206,26.9469896 C237.537806,26.9469896 237.336206,27.1485896 237.336206,27.3969896 L237.336206,42.9174893 C237.336206,43.1667893 237.537806,43.3674893 237.786206,43.3674893 C238.034606,43.3674893 238.236206,43.1667893 238.236206,42.9174893 L238.236206,27.3969896 C238.236206,27.1485896 238.034606,26.9469896 237.786206,26.9469896" id="Fill-143" fill="#54C0D6"></path>
                <path d="M248.690606,50.6782792 C248.690606,50.2435792 248.337806,49.8907792 247.903106,49.8907792 L247.903106,49.8907792 L227.669306,49.8907792 C227.265206,49.8907792 226.927706,50.1949792 226.886306,50.5963792 C226.844006,50.9977792 227.111306,51.3649792 227.506406,51.4486792 L247.740206,55.7299791 C248.165906,55.8199791 248.583506,55.5481791 248.673506,55.1224791 C248.763506,54.6976791 248.491706,54.2791791 248.066006,54.1891791 L235.194206,51.4657792 L247.903106,51.4657792 C248.337806,51.4657792 248.690606,51.1129792 248.690606,50.6782792" id="Fill-145" fill="#50515F"></path>
                <path d="M248.686376,58.2529491 C248.728676,57.8515491 248.461376,57.4843491 248.066276,57.4006491 L227.832476,53.1193492 C227.406776,53.0293492 226.988276,53.3011492 226.899176,53.7268491 C226.809176,54.1525491 227.080976,54.5701491 227.506676,54.6601491 L240.377576,57.3835491 L227.669576,57.3835491 C227.233976,57.3835491 226.882076,57.7363491 226.882076,58.1710491 C226.882076,58.6057491 227.233976,58.9585491 227.669576,58.9585491 L227.669576,58.9585491 L247.903376,58.9585491 C248.307476,58.9585491 248.644076,58.6543491 248.686376,58.2529491" id="Fill-147" fill="#50515F"></path>
                <g id="Group-151" transform="translate(215.099997, 0.763200)">
                    <mask id="mask-6" fill="white">
                        <use xlink:href="#path-5"></use>
                    </mask>
                    <g id="Clip-150"></g>
                    <path d="M2.00708997,20.7868497 C2.69828996,10.4530498 11.0151898,2.17394997 21.3534897,1.52774998 C21.7962897,1.50074998 22.2453896,1.48634998 22.6863896,1.48634998 C34.1154895,1.48634998 43.4133893,10.7842498 43.4133893,22.2133496 C43.4133893,29.2405495 39.8907894,35.7340494 33.9912895,39.5824494 C33.6087895,39.8317494 33.3783895,40.2574494 33.3783895,40.7137494 L33.3783895,45.3487493 L11.9943898,45.3487493 L11.9943898,40.7137494 C11.9943898,40.2574494 11.7639898,39.8317494 11.3814898,39.5824494 C5.09858992,35.4838494 1.50578998,28.2820495 2.00708997,20.7868497 L2.00708997,20.7868497 Z M10.6443898,45.6736493 C10.6443898,46.2397493 11.1033898,46.6987493 11.6694898,46.6987493 L33.7032895,46.6987493 C34.2693895,46.6987493 34.7283894,46.2397493 34.7283894,45.6736493 L34.7283894,40.7137494 C40.7682894,36.7735494 44.7633893,29.9623495 44.7633893,22.2133496 C44.7633893,10.0210498 34.8795894,0.136349998 22.6863896,0.136349998 C22.2174896,0.136349998 21.7449897,0.150749998 21.2697897,0.180449997 C10.3176898,0.864449986 1.39238998,9.74834984 0.659789989,20.6968497 C0.0999899984,29.0677495 4.21298993,36.5188494 10.6443898,40.7137494 L10.6443898,45.6736493 Z" id="Fill-149" fill="#54C0D6" mask="url(#mask-6)"></path>
                </g>
                <path d="M245.609096,6.5768399 C249.874196,8.67113986 253.204196,12.3827398 254.798096,16.9097397 C254.880896,17.1437397 255.137396,17.2670397 255.372296,17.1842397 C255.606296,17.1023397 255.729596,16.8449397 255.646796,16.6109397 L255.646796,16.6100397 C253.972796,11.8589398 250.481696,7.96733987 246.005096,5.76863991 C245.781896,5.65973991 245.512796,5.75153991 245.402996,5.9747399 C245.294096,6.1979399 245.385896,6.4670399 245.609096,6.5768399" id="Fill-152" fill="#54C0D6"></path>
                <path d="M409.420973,85.3972186 L392.605374,85.3972186 C391.274274,85.3972186 390.195174,86.4763186 390.195174,87.8074186 L390.195174,96.5032185 L390.165474,96.5869185 L388.532874,98.6083184 C388.461774,98.6956184 388.524774,98.8261184 388.637274,98.8261184 L392.471274,98.8261184 L393.752874,98.8261184 L409.420973,98.8261184 C410.752073,98.8261184 411.831173,97.7470184 411.831173,96.4159185 L411.831173,87.8074186 C411.831173,86.4763186 410.752073,85.3972186 409.420973,85.3972186" id="Fill-154" fill="#54C0D6"></path>
                <path d="M375.309534,158.968167 L375.312234,158.968167 L375.313134,158.968167 C375.219534,158.968167 375.141234,158.940267 375.056634,158.921367 C375.136734,158.951967 375.220434,158.968167 375.309534,158.968167" id="Fill-156" fill="#FFFFFF"></path>
                <path d="M390.019404,129.916798 C390.025704,129.915898 390.030204,129.912298 390.036504,129.911398 C390.025704,129.912298 390.014004,129.914098 390.003204,129.914998 C390.008604,129.914998 390.014004,129.917698 390.019404,129.916798" id="Fill-158" fill="#FFFFFF"></path>
                <path d="M384.477834,159.080667 L384.478734,159.080667 C384.476934,159.080667 384.475134,159.079767 384.474234,159.079767 C384.475134,159.079767 384.476934,159.080667 384.477834,159.080667" id="Fill-160" fill="#FFFFFF"></path>
                <path d="M368.048424,130.524568 C368.057424,130.525468 368.065524,130.520968 368.074524,130.520968 C367.999824,130.519168 367.931424,130.493068 367.859424,130.476868 C367.923324,130.502968 367.986324,130.519168 368.048424,130.524568" id="Fill-162" fill="#FFFFFF"></path>
                <path d="M384.520494,159.079317 C384.529494,159.078417 384.540294,159.074817 384.549294,159.073917 C384.526794,159.075717 384.500694,159.080217 384.479094,159.080217 L384.520494,159.079317 Z" id="Fill-164" fill="#FFFFFF"></path>
                <path d="M374.899764,91.3031985 C374.357064,92.0897985 374.077164,93.2417985 374.197764,94.6988985 C374.223864,93.9302985 374.244564,93.3614985 374.244564,93.3614985 C374.358864,92.5658985 374.581164,91.8800985 374.899764,91.3031985" id="Fill-166" fill="#FFFFFF"></path>
                <path d="M382.890954,94.3443885 C382.959354,93.4776885 382.789254,92.4957885 382.265454,91.6641885 C381.570654,90.5598886 380.385354,89.9613886 378.826554,89.9244886 C380.484354,90.6606886 382.227654,92.4390885 382.890954,94.3443885" id="Fill-168" fill="#50515F"></path>
                <path d="M378.512274,89.9247586 C377.353074,89.9544586 376.454874,90.3477586 375.842874,91.0956585 C375.299274,91.7589585 375.032874,92.6238585 374.912274,93.4581585 C375.903174,91.3494585 377.785074,90.2748586 378.512274,89.9247586" id="Fill-170" fill="#50515F"></path>
                <path d="M378.895044,117.434968 C381.603144,112.590268 380.668944,106.145368 378.250644,102.953068 C378.001344,102.624568 377.718744,102.274468 377.420844,101.908168 C376.490244,100.757068 375.406644,99.4187684 374.786544,98.0039684 C374.760444,99.5393684 374.929644,101.588668 375.824244,103.019668 L376.082544,103.432768 L375.604644,103.529968 C369.044544,104.858368 368.687244,110.051368 368.235444,116.624968 C368.101344,118.581568 367.962744,120.601168 367.656744,122.694568 C374.207844,123.212068 377.384844,120.136768 378.895044,117.434968" id="Fill-172" fill="#50515F"></path>
                <path d="M378.788304,102.545008 L378.802704,102.565708 C381.129204,99.8855084 382.424304,96.3026085 382.438704,96.2612085 L382.494504,96.1046085 L382.494504,95.8868085 C382.494504,94.0031085 380.725104,91.5695085 378.674904,90.5975086 C377.496804,91.1933085 375.147804,92.7854085 374.973204,95.9984085 C375.064104,97.9073084 376.652604,99.8846084 377.945904,101.483008 C378.248304,101.855608 378.535404,102.211108 378.788304,102.545008" id="Fill-174" fill="#50515F"></path>
                <path d="M374.570634,122.283448 C374.314134,122.400448 374.063934,122.525548 373.794834,122.624548 C373.805634,129.739948 376.819734,144.053548 388.092234,148.144048 C388.076034,147.892948 388.057134,147.622948 388.037334,147.333148 C381.084834,142.834048 376.162734,131.042248 376.049334,123.146548 C375.550734,122.881948 375.059334,122.588548 374.570634,122.283448" id="Fill-176" fill="#50515F"></path>
                <path d="M388.186824,149.653078 C388.176024,149.448778 388.159824,149.185978 388.140924,148.881778 C376.391424,144.837178 373.189224,130.231078 373.122624,122.826778 C372.847224,122.909578 372.563724,122.981578 372.277524,123.048178 C371.663724,132.071578 370.661124,146.792878 370.542324,149.659378 C370.529724,149.971678 370.779924,150.211078 371.092224,150.211078 L373.944324,150.261478 C374.055924,152.563678 374.094624,154.349278 374.207124,155.436478 C374.411424,157.411077 374.784924,158.295777 375.311424,158.293077 C375.898224,158.291277 376.211424,157.533477 376.344624,155.276278 C376.433724,153.757078 376.561524,152.174878 376.668624,150.211078 L382.656324,150.211078 C382.936224,152.065978 382.972224,154.210678 383.300724,156.336478 C383.676924,158.776377 385.214124,159.397377 385.269024,156.336478 C385.299624,154.633678 385.410324,152.449378 385.417524,150.211078 L387.636924,150.211078 C387.951924,150.211078 388.203924,149.968078 388.186824,149.653078" id="Fill-178" fill="#50515F"></path>
                <path d="M387.975504,146.462038 C387.637104,141.719038 386.985504,133.302238 386.423904,126.102238 C383.538504,125.919538 380.087904,125.129338 376.739904,123.483238 C376.989204,131.902738 382.103004,142.324738 387.975504,146.462038" id="Fill-180" fill="#50515F"></path>
                <path d="M390.740304,126.573928 C390.723204,126.332728 390.707004,126.108628 390.690804,125.880028 C390.086904,126.002428 389.390304,126.082528 388.631604,126.120328 C388.659504,126.316528 388.687404,126.510928 388.715304,126.715228 C389.207604,130.260328 390.977004,129.957028 390.740304,126.573928" id="Fill-182" fill="#50515F"></path>
                <path d="M390.250074,118.554298 C389.755974,113.159698 389.328474,108.501298 386.509674,106.040698 C383.150874,103.107598 382.962774,100.286998 382.838574,98.4203984 C382.811574,98.0162984 382.787274,97.6544984 382.736874,97.3430985 C382.192374,98.6354984 380.983674,101.122198 379.189974,103.130998 C381.430074,106.647298 382.169874,112.959898 379.484274,117.764998 C378.460074,119.597398 377.033574,121.004098 375.278574,121.957198 C381.124974,125.460898 387.735474,125.963998 391.000674,125.117998 C390.644274,122.864398 390.444474,120.674698 390.250074,118.554298" id="Fill-184" fill="#50515F"></path>
                <path d="M370.057854,123.384868 C369.715854,123.409168 369.367554,123.422668 369.012054,123.422668 C368.516154,123.422668 368.004954,123.391168 367.486554,123.347068 C367.389354,124.742068 367.322754,126.046168 367.306554,127.273768 C367.252554,131.388568 369.111054,129.836068 369.444054,127.723768 C369.617754,126.623968 369.831954,125.068768 370.057854,123.384868" id="Fill-186" fill="#50515F"></path>
                <path d="M473.844592,66.2451289 L456.974993,66.2451289 C456.106493,66.2451289 455.401793,66.9498289 455.401793,67.8183289 L455.401793,73.7034288 C456.805793,73.1832288 458.476193,73.4739288 459.516593,74.8518288 C460.251893,75.8265288 460.437293,77.0649288 460.291493,78.2538288 C460.274393,78.3933288 460.247393,78.5310287 460.221293,78.6687287 L463.731293,78.6687287 L463.781693,78.6975287 L465.360293,81.2868287 L465.459293,81.2868287 L467.037893,78.6975287 L467.087393,78.6687287 L473.844592,78.6687287 C474.713092,78.6687287 475.417792,77.9649288 475.417792,77.0955288 L475.417792,67.8183289 C475.417792,66.9498289 474.713092,66.2451289 473.844592,66.2451289" id="Fill-188" fill="#F06862"></path>
                <path d="M453.385613,126.873718 C453.517013,126.925918 453.650213,126.906118 453.778913,126.825118 C453.636713,126.867418 453.505313,126.883618 453.385613,126.873718" id="Fill-190" fill="#50515F"></path>
                <path d="M460.599923,126.826738 C460.801523,126.910438 461.004923,126.886138 461.179523,126.745738 C461.089523,126.785338 460.993223,126.815938 460.885223,126.830338 C460.785323,126.843838 460.690823,126.838438 460.599923,126.826738" id="Fill-192" fill="#50515F"></path>
                <path d="M458.861483,87.4185286 L458.891183,87.5292286 L458.825483,87.6228286 C458.818283,87.6336286 458.079383,88.7028286 457.659083,90.1698286 C457.209083,91.7493285 457.320683,94.6410285 457.760783,100.950928 C457.787783,101.325328 457.798583,101.663728 457.809383,101.967028 C457.849883,103.164028 457.892183,103.584328 458.442083,103.700428 C459.077483,103.834528 460.372583,103.767028 461.499383,103.294528 C461.451683,98.1213284 461.404883,93.7554285 461.414783,92.0742285 L461.374283,92.1039285 C460.108883,90.3723286 459.776783,87.1917286 460.550783,84.3387287 C460.089083,84.2460287 459.653483,84.2055287 459.279983,84.1794287 C458.787683,85.5555286 458.648183,86.6202286 458.861483,87.4185286" id="Fill-194" fill="#50515F"></path>
                <path d="M451.029053,91.4614185 L451.031753,91.6090185 C451.031753,92.2939185 451.227953,97.3105185 451.484453,103.264018 C452.739953,103.974118 454.431953,104.027218 455.180753,103.840018 C455.725253,103.704118 455.751353,103.282918 455.747753,102.085018 C455.746853,101.781718 455.745953,101.442418 455.757653,101.068018 C455.960153,94.9147185 455.502053,92.3182185 455.133953,90.2320186 L455.052053,89.7622186 C454.798253,88.2907186 453.990053,87.5347186 453.981953,87.5275186 L453.908153,87.4600186 L453.902753,87.3601186 C453.850553,86.4439186 453.690353,85.3810186 452.987453,84.3433187 C452.635553,84.3973187 452.231453,84.4693187 451.795853,84.5782187 C452.655353,87.1126186 452.350253,89.8369186 451.029053,91.4614185" id="Fill-196" fill="#50515F"></path>
                <path d="M450.995663,90.6677986 C451.919063,89.1368986 452.058563,86.8553986 451.324163,84.7115987 C449.603363,85.2344986 447.718763,86.3594986 447.698063,88.9937986 C447.657563,94.3280985 447.338063,99.2870984 447.368663,101.861998 C447.404663,104.857198 448.661063,104.391898 449.043563,102.194998 C449.371163,100.311298 449.830163,94.1363985 449.944463,91.8359985 C450.091163,88.8713986 450.825563,88.6076986 450.995663,90.6677986" id="Fill-198" fill="#50515F"></path>
                <path d="M458.134643,82.0583087 C460.025543,79.4996087 460.129943,77.1812088 459.525143,75.8267088 C458.501843,73.5335088 455.717243,73.4111088 454.306943,74.9285088 C453.207143,76.1111088 452.662643,78.6419087 454.769543,82.0907087 C454.984643,82.4426087 455.315843,83.7800087 454.038743,84.1796087 C453.950543,84.2066087 453.768743,84.2318087 453.527543,84.2651087 C454.165643,85.2974086 454.329443,86.3324086 454.387043,87.2378086 C454.616543,87.4772086 455.296043,88.2863086 455.536343,89.6786086 L455.618243,90.1466086 C455.970143,92.1437085 456.452543,94.8797085 456.249143,101.083408 C456.237443,101.452408 456.238343,101.785408 456.239243,102.083308 C456.240143,102.230908 456.240143,102.373108 456.238343,102.509908 C456.686543,102.564808 457.105043,102.531508 457.341743,102.501808 C457.331843,102.337108 457.324643,102.166108 457.318343,101.984308 C457.308443,101.685508 457.296743,101.353408 457.271543,100.985308 C456.826043,94.6151085 456.716243,91.6856085 457.187843,90.0350086 C457.561343,88.7246086 458.163443,87.7373086 458.359643,87.4358086 C458.165243,86.5817086 458.301143,85.4981086 458.770043,84.1445087 C458.618843,84.1328087 458.484743,84.1202087 458.378543,84.1004087 C457.312043,83.9033087 457.753943,82.5731087 458.134643,82.0583087" id="Fill-200" fill="#50515F"></path>
                <path d="M454.522493,123.966628 C454.528793,123.862228 454.535093,123.750628 454.541393,123.642628 C454.027493,123.724528 453.411893,123.768628 452.833193,123.768628 C452.717993,123.768628 452.607293,123.765028 452.496593,123.761428 C452.505593,123.899128 452.515493,124.040428 452.524493,124.160128 C452.742293,127.050028 454.329893,127.242628 454.522493,123.966628" id="Fill-202" fill="#50515F"></path>
                <path d="M461.435753,91.2554085 C461.568053,88.9820086 462.468953,89.0918086 462.637253,91.4264085 C462.934253,95.5655085 463.209653,98.0189084 463.620053,101.171608 C463.954853,103.754608 465.285053,103.427908 465.285053,100.959208 C465.285053,96.3224085 465.279653,94.7321085 465.093353,91.0988085 C464.854853,86.4422086 462.839753,84.9626086 461.028953,84.4532087 C460.362953,86.8922086 460.540253,89.5589086 461.435753,91.2554085" id="Fill-204" fill="#50515F"></path>
                <path d="M461.563193,123.659098 C461.070893,123.731098 460.497593,123.768898 459.957593,123.768898 C459.803693,123.768898 459.654293,123.765298 459.509393,123.758998 C459.564293,124.122598 459.620093,124.492498 459.678593,124.868698 C459.952193,126.645298 461.506493,127.044898 461.546093,124.816498 C461.553293,124.452898 461.558693,124.061398 461.563193,123.659098" id="Fill-206" fill="#50515F"></path>
                <path d="M459.436943,123.266158 C460.111043,123.299458 460.942643,123.258058 461.569043,123.161758 C461.621243,118.062358 461.563643,110.370058 461.504243,103.818058 C460.731143,104.110558 459.881543,104.256358 459.166943,104.256358 C458.860043,104.256358 458.579243,104.231158 458.340743,104.180758 C457.695443,104.043958 457.476743,103.612858 457.388543,102.991858 C457.227443,103.011658 457.003343,103.032358 456.739643,103.032358 C456.576743,103.032358 456.398543,103.019758 456.215843,102.999058 C456.161843,103.673158 455.971943,104.148358 455.299643,104.316658 C455.008943,104.389558 454.652543,104.427358 454.262843,104.427358 C453.392543,104.427358 452.362043,104.226658 451.507943,103.814458 C451.822943,111.073858 452.219843,119.541058 452.462843,123.271558 C453.155843,123.294058 453.976643,123.244558 454.570643,123.141058 C454.769543,119.685958 455.024243,114.968158 455.359943,112.302358 C456.004343,107.190358 457.109543,107.026558 457.938443,112.237558 C458.303843,114.537058 458.695343,118.242358 459.436943,123.266158" id="Fill-208" fill="#50515F"></path>
            </g>
        </g>
    </g>
</svg>